<svg data-name="Layer 1" xmlns="http://www.w3.org/2000/svg" width="1069.82" height="837.5"><defs><linearGradient id="a" x1="639.01" y1="505.57" x2="639.01" y2="392.27" gradientTransform="rotate(-9.06 588.507 440.737)" gradientUnits="userSpaceOnUse"><stop offset="0" stop-color="gray" stop-opacity=".25"/><stop offset=".54" stop-color="gray" stop-opacity=".12"/><stop offset="1" stop-color="gray" stop-opacity=".1"/></linearGradient></defs><path d="M158.4 526.59a4.24 4.24 0 0 1-4.23 4.23h-6a4.23 4.23 0 1 1 0 8.46h8.45a4.23 4.23 0 0 1 0 8.46h-39.71c27.13 76 78 142.44 144.88 192.51a4.21 4.21 0 0 1 2.37-.74h48.93a4.23 4.23 0 1 1 0 8.46h-6a4.23 4.23 0 1 1 0 8.46h8.46a4.23 4.23 0 0 1 0 8.46h-17.39c74.93 45.8 165.6 72.61 263.28 72.61a515.07 515.07 0 0 0 170.12-28.55q10.9-3.83 21.55-8.1 18.54-7.49 36.21-16.33 7.62-3.81 15.07-7.88l.23-.12 1.12-.62 2.91-1.61q8.81-4.92 17.35-10.18l3.5-2.17q4.44-2.79 8.79-5.67 8.68-5.71 17.06-11.8l2-1.48 1.61-1.19q11.28-8.34 21.94-17.29l.3-.25q5.22-4.39 10.29-8.93l.3-.27a437.74 437.74 0 0 0 31.51-31.2 419.94 419.94 0 0 0 40.76-52.38h-19.5a4.23 4.23 0 0 1 0-8.46h-8.45a4.23 4.23 0 0 1 0-8.46h6a4.23 4.23 0 1 1 0-8.45h37.29c31-55.72 48.43-118.5 48.43-184.93a375 375 0 0 0-20.74-123.1H924.1a8.94 8.94 0 0 1 0-17.87h-17.86a8.93 8.93 0 0 1 0-17.86H919a8.94 8.94 0 0 1 0-17.87h64.91C909.46 102.91 748.28 4.87 561.44 4.87c-109.14 0-209.51 33.45-289 89.48h20.8a8.94 8.94 0 0 1 0 17.87h-12.73a8.93 8.93 0 0 1 0 17.86h17.86a8.94 8.94 0 1 1 0 17.87h-88.88C138.16 221.07 94.96 316.62 94.96 421.18a374.87 374.87 0 0 0 13.89 101.18h45.32a4.25 4.25 0 0 1 4.23 4.23z" fill="#b13038" opacity=".1"/><path d="M744.06 722.97s6.07-20.61-1.14-35.78a32.49 32.49 0 0 1-2.63-20.44 54.41 54.41 0 0 1 2.89-9.58" fill="none" stroke="#535461" stroke-miterlimit="10" stroke-width="2"/><path d="M738.69 647.6c0 2.52 4.58 9.85 4.58 9.85s4.57-7.33 4.57-9.85a4.58 4.58 0 0 0-9.15 0zM731.13 661.59c1.38 2.12 9.2 5.78 9.2 5.78s-.15-8.63-1.52-10.75a4.582 4.582 0 0 0-7.68 5zM731.46 685.5c2.26 1.14 10.86.35 10.86.35s-4.48-7.38-6.74-8.52a4.58 4.58 0 0 0-4.12 8.17zM735.79 703.53c2 1.5 10.64 2.18 10.64 2.18s-3.17-8-5.2-9.53a4.572 4.572 0 1 0-5.44 7.35zM749.91 667.86c-1.81 1.76-10.25 3.58-10.25 3.58s2.06-8.38 3.88-10.14a4.572 4.572 0 0 1 6.37 6.56zM754.72 689.02c-2.26 1.13-10.86.35-10.86.35s4.48-7.38 6.74-8.52a4.58 4.58 0 0 1 4.12 8.17zM756.55 710.22c-2 1.5-10.64 2.18-10.64 2.18s3.17-8 5.2-9.54a4.58 4.58 0 1 1 5.44 7.36z" fill="#b13038"/><path d="M892.22 701.98s6.07-20.61-1.14-35.78a32.57 32.57 0 0 1-2.63-20.45 54.5 54.5 0 0 1 2.89-9.59" fill="none" stroke="#535461" stroke-miterlimit="10" stroke-width="2"/><path d="M886.85 626.61c0 2.52 4.58 9.85 4.58 9.85s4.57-7.33 4.57-9.85a4.58 4.58 0 1 0-9.15 0zM879.29 640.6c1.38 2.12 9.2 5.78 9.2 5.78s-.14-8.63-1.52-10.75a4.582 4.582 0 1 0-7.68 5zM879.63 664.5c2.25 1.14 10.85.36 10.85.36s-4.48-7.39-6.74-8.52a4.57 4.57 0 1 0-4.11 8.16zM883.91 682.54c2 1.5 10.64 2.18 10.64 2.18s-3.17-8-5.2-9.54a4.58 4.58 0 0 0-5.44 7.36zM898.09 646.87c-1.81 1.76-10.25 3.58-10.25 3.58s2.07-8.38 3.88-10.14a4.572 4.572 0 0 1 6.37 6.56zM902.91 668.02c-2.26 1.14-10.86.35-10.86.35s4.49-7.38 6.74-8.51a4.57 4.57 0 0 1 4.12 8.16zM904.71 689.22c-2 1.5-10.64 2.18-10.64 2.18s3.17-8 5.2-9.53a4.572 4.572 0 1 1 5.44 7.35z" fill="#b13038"/><path d="M775.51 699.98s6.07-20.61-1.14-35.78a32.56 32.56 0 0 1-2.63-20.45 54.41 54.41 0 0 1 2.89-9.58" fill="none" stroke="#535461" stroke-miterlimit="10" stroke-width="2"/><path d="M770.14 624.61c0 2.52 4.58 9.85 4.58 9.85s4.57-7.33 4.57-9.85a4.58 4.58 0 0 0-9.15 0zM762.58 638.6c1.38 2.12 9.2 5.78 9.2 5.78s-.14-8.63-1.52-10.75a4.582 4.582 0 1 0-7.68 5zM762.91 662.51c2.25 1.14 10.85.35 10.85.35s-4.48-7.38-6.74-8.52a4.573 4.573 0 1 0-4.11 8.17zM767.24 680.54c2 1.5 10.64 2.18 10.64 2.18s-3.17-8-5.2-9.53a4.572 4.572 0 1 0-5.44 7.35zM781.38 644.87c-1.81 1.76-10.25 3.58-10.25 3.58s2.07-8.38 3.88-10.14a4.572 4.572 0 0 1 6.37 6.56zM786.17 666.03c-2.26 1.13-10.86.35-10.86.35s4.49-7.38 6.74-8.52a4.58 4.58 0 0 1 4.12 8.17zM788 687.23c-2 1.5-10.64 2.18-10.64 2.18s3.17-8 5.2-9.54a4.58 4.58 0 1 1 5.44 7.36z" fill="#b13038"/><path d="M880.91 721.91v2.6l.3-.25q5.22-4.39 10.29-8.93l.3-.27a437.74 437.74 0 0 0 31.51-31.2c-10.67-18.56-35.66-18.66-40.15-18.52h-.7s-1.61 33.41-1.55 56.57z" fill="#a8a8a8"/><path d="M880.91 721.91v2.6l.3-.25q5.22-4.39 10.29-8.93l.3-.27a437.74 437.74 0 0 0 31.51-31.2c-10.67-18.56-35.66-18.66-40.15-18.52h-.7s-1.61 33.41-1.55 56.57z" fill="#fff" opacity=".1"/><path d="M774.39 686.28l.84 5.54 8.56 56.29 2.8 18.46 2.73 17.94q7.62-3.81 15.07-7.88l.23-.12 1.12-.62 2.91-1.61q8.81-4.92 17.35-10.18l3.5-2.17q4.44-2.79 8.79-5.67 8.68-5.71 17.06-11.8l2-1.48 1.61-1.19q11.28-8.34 21.94-17.29l.3-.25q5.22-4.39 10.29-8.93l-5-25.75q-1.5-7.82-2.48-15.7-.54-4.26-.9-8.54c-.07-.68-.13-1.37-.18-2.05-1.72-21.47-7-66.07-21.81-76.56a11.19 11.19 0 0 0-10-1.77 41 41 0 0 0-4.33 1.48c-10.39 4.16-20.22 12.42-28.37 21a148.26 148.26 0 0 0-28 42.24l-15 33.81-.05.11-.14.31z" fill="#a8a8a8"/><path d="M810.91 743.99l17.39-59.48s16.28 43.75 29.09 58.48l1.61-1.19-23.09-57.05s-7.56-32.51-1.51-44.35c4.8-9.4 20.56-41 26.85-53.68a11.19 11.19 0 0 0-10-1.77 41 41 0 0 0-4.33 1.48c-8 12.68-22.8 38-23.9 53.71a196.94 196.94 0 0 0 1.76 41.15z" fill="#fff" opacity=".1"/><path d="M731.56 808.95q10.9-3.83 21.55-8.1 18.54-7.49 36.21-16.33 7.62-3.81 15.07-7.88l.23-.12-.58-3.67-.63-4-2.07-13.26s-9.63-41.64-19.81-62.65a39.18 39.18 0 0 0-5.91-9.43c-.15-.17-.31-.32-.47-.47a11.27 11.27 0 0 0-7-1.7 14.79 14.79 0 0 0-8.61 4.05c-5 4.45-10.45 13.36-15.13 30.41-7.21 26.14-10.96 64.79-12.85 93.15z" fill="#a8a8a8"/><path d="M753.11 800.85q18.54-7.49 36.21-16.33 7.62-3.81 15.07-7.88c-.05-1.24-.17-2.5-.35-3.79s-1.27-7-14.7-6.47c-.92 0-1.84.11-2.75.22a38.2 38.2 0 0 0-31.27 25.15 40.33 40.33 0 0 0-2.21 9.1zM770.85 702.66c.45-11.88-6-15.95-11.33-17.31a14.73 14.73 0 0 1 8.61-4.05 22.86 22.86 0 0 1 7.51 12l13.61 66.28s-19.16-37.01-18.4-56.92z" fill="#fff" opacity=".1"/><path d="M829.72 759.02l-3.72 5.09 3.5-2.17q4.44-2.79 8.79-5.67l-5.69-1.19z" fill="#a8a8a8"/><path d="M829.5 761.94q4.44-2.79 8.79-5.67 8.68-5.71 17.06-11.8c-3.93-2.8-7.67-4.74-10.27-4.51 0 0-13.33.91-15.36 19.06-.1.93-.18 1.9-.22 2.92z" fill="#fff" opacity=".1"/><path d="M775.13 683l.3.92 28 84.92 2.33 7.06 2.91-1.61a215.58 215.58 0 0 0-27.12-81.36c-2.88-4.9-5.07-8.07-6-9.32a9.07 9.07 0 0 0-.42-.58zM880.91 721.91c.09.78.2 1.56.31 2.35q5.22-4.39 10.29-8.93l.3-.27-7.74-41.18-1.6-8.51a182.94 182.94 0 0 0-1.56 56.54z" opacity=".1"/></svg>