<svg data-name="Layer 1" xmlns="http://www.w3.org/2000/svg" width="20" height="20" viewBox="321 531 15 15"><path d="M322.5 538.86a4 4 0 0 0 2.2-4.77 1.65 1.65 0 0 1-.09-.43 2 2 0 0 1 3.56-1.32 2.16 2.16 0 0 1 .22.39 3.93 3.93 0 0 0 4.77 2.2 1.56 1.56 0 0 1 .43-.08 2 2 0 0 1 1.31 3.55 1.79 1.79 0 0 1-.38.22 3.94 3.94 0 0 0-2.2 4.77 2.14 2.14 0 0 1 .08.44 2 2 0 0 1-3.55 1.31 1.87 1.87 0 0 1-.22-.39 4 4 0 0 0-4.77-2.2 2.15 2.15 0 0 1-.44.09 2 2 0 0 1-1.31-3.56 1.87 1.87 0 0 1 .39-.22z" fill="#b13038" opacity=".3"/></svg>